<svg width="678" height="667" viewBox="0 0 678 667" fill="none" xmlns="http://www.w3.org/2000/svg">
<path fill-rule="evenodd" clip-rule="evenodd" d="M439.191 108.568C470.15 118.185 498.488 136.512 520.648 160.175C542.7 183.722 559.222 213.049 566.475 244.485C573.482 274.854 559.445 305.954 561.46 337.056C563.538 369.13 596.744 404.607 578.568 431.115C557.497 461.845 499.511 439.231 473.266 465.68C449.751 489.377 473.765 539.778 448.774 561.914C426.275 581.844 389.531 567.318 359.486 566.463C332.144 565.685 305.646 561.595 278.669 557.074C250.244 552.311 217.682 556.526 194.894 538.88C171.955 521.117 172.059 485.979 155.816 461.94C139.474 437.756 108.299 424.113 98.7121 396.545C89.1564 369.067 101.279 339.159 103.018 310.119C104.883 279.003 89.13 241.277 109.432 217.623C131.427 191.995 177.507 208.156 206.039 190.087C230.602 174.532 234.964 137.434 259.834 122.376C284.896 107.202 316.162 107.975 345.373 105.726C376.835 103.304 409.055 99.2064 439.191 108.568Z" fill="#AFE9C6" fill-opacity="0.4"/>
<line x1="167.055" y1="382.815" x2="487.055" y2="382.815" stroke="black"/>
<line x1="191.055" y1="239.965" x2="298.055" y2="239.965" stroke="black" stroke-width="0.7"/>
<path d="M256.308 219.972C256.051 220.977 256.673 221.648 255.416 222.585C255.273 222.518 255.209 222.491 255.122 222.467C255.118 222.471 255.115 222.474 255.111 222.478C255.115 222.474 255.118 222.47 255.121 222.467C255.032 222.441 254.919 222.419 254.674 222.359H254.236L253.875 222.359L253.554 222.359L252.924 222.359L252.686 222.359L252.486 222.359C252.246 222.359 251.892 222.446 251.611 222.56C251.431 222.633 251.282 222.716 251.212 222.795C250.493 221.892 250.164 221.192 250.166 220.315C250.676 221.167 251.012 221.786 251.611 222.56C250.898 221.612 250.638 220.901 250.666 219.815C251.153 220.97 251.468 221.54 251.953 222.225C251.378 221.366 251.205 220.05 251.172 219.842C251.167 219.828 251.165 219.819 251.166 219.815C251.166 219.81 251.168 219.819 251.172 219.842C251.245 220.066 251.93 221.57 252.486 222.359C252.133 221.361 251.793 220.768 251.478 219.815C252.238 220.59 252.51 221.178 252.648 222.076C252.536 221.255 252.428 220.682 251.916 219.815C252.229 219.921 252.431 220.155 252.569 220.473C252.59 220.268 252.638 220.053 252.718 219.815C252.843 220.366 253.011 220.793 253.147 221.256C253.242 220.631 253.311 220.092 253.556 219.837C253.629 220.462 253.674 221.584 253.36 222.337L253.554 222.359L253.629 220.629C253.629 220.629 254.235 221.202 253.875 222.359C254.444 221.2 253.355 220.589 254.166 219.815C254.038 220.347 254.296 220.764 254.437 221.187C254.535 220.611 254.638 220.004 254.664 219.84C254.663 219.831 254.664 219.823 254.666 219.815C254.672 219.784 254.671 219.795 254.664 219.84C254.668 220.016 254.985 220.48 255.088 221.025L255.416 219.972C255.426 220.241 255.69 220.543 255.759 220.962C255.842 220.67 255.979 220.354 256.308 219.972Z" fill="#FF3A99"/>
<path d="M256.308 220.489C256.051 221.494 256.673 222.166 255.416 223.103C255.273 223.036 255.209 223.009 255.122 222.985C255.118 222.988 255.115 222.992 255.111 222.996C255.115 222.992 255.118 222.988 255.121 222.984C255.032 222.959 254.919 222.937 254.674 222.877H254.236L253.875 222.877L253.554 222.876L252.924 222.877L252.686 222.877L252.486 222.877C252.246 222.877 251.892 222.964 251.611 223.078C251.431 223.151 251.282 223.234 251.212 223.313C250.493 222.41 250.164 221.71 250.166 220.833C250.676 221.685 251.012 222.304 251.611 223.078C250.898 222.129 250.638 221.418 250.666 220.333C251.153 221.488 251.468 222.058 251.953 222.743C251.378 221.884 251.205 220.568 251.172 220.36C251.167 220.346 251.165 220.337 251.166 220.333C251.166 220.328 251.168 220.337 251.172 220.36C251.245 220.584 251.93 222.088 252.486 222.877C252.133 221.879 251.793 221.285 251.478 220.333C252.238 221.108 252.51 221.696 252.648 222.594C252.536 221.773 252.428 221.199 251.916 220.333C252.229 220.439 252.431 220.672 252.569 220.991C252.59 220.785 252.638 220.571 252.718 220.333C252.843 220.884 253.011 221.311 253.147 221.773C253.242 221.149 253.311 220.609 253.556 220.355C253.629 220.98 253.674 222.101 253.36 222.855L253.554 222.876L253.629 221.147C253.629 221.147 254.235 221.72 253.875 222.877C254.444 221.718 253.355 221.107 254.166 220.333C254.038 220.864 254.296 221.281 254.437 221.705C254.535 221.128 254.638 220.522 254.664 220.358C254.663 220.349 254.664 220.341 254.666 220.333C254.672 220.302 254.671 220.313 254.664 220.358C254.668 220.533 254.985 220.998 255.088 221.542L255.416 220.489C255.426 220.758 255.69 221.061 255.759 221.48C255.842 221.188 255.979 220.872 256.308 220.489Z" fill="#FF3A99" style="mix-blend-mode:multiply"/>
<path d="M259.166 225.721C259.166 227.601 256.927 229.126 254.166 229.126C251.404 229.126 249.166 227.601 249.166 225.721C249.166 223.84 251.404 222.315 254.166 222.315C256.927 222.315 259.166 223.84 259.166 225.721Z" fill="#42D37D" style="mix-blend-mode:multiply"/>
<path d="M258.366 225.664C258.366 227.545 256.097 229.07 253.299 229.07C250.501 229.07 248.232 227.545 248.232 225.664C248.232 223.783 250.501 222.259 253.299 222.259C256.097 222.259 258.366 223.783 258.366 225.664Z" fill="#42D37D"/>
<path d="M250.132 223.961L249.499 223.394M250.132 223.961V223.394M250.132 223.961L250.766 223.394M250.132 223.961H250.766M250.132 223.961L250.766 224.529M250.132 223.961V224.529M250.132 223.961L249.499 224.529M250.132 223.961H249.499" stroke="#FEF6AA" stroke-width="0.15"/>
<path d="M253.932 222.826L253.299 222.259M253.932 222.826V222.259M253.932 222.826L254.565 222.259M253.932 222.826H254.565M253.932 222.826L254.565 223.394M253.932 222.826V223.394M253.932 222.826L253.299 223.394M253.932 222.826H253.299" stroke="#FEF6AA" stroke-width="0.15"/>
<path d="M248.866 227.367L248.232 226.799M248.866 227.367V226.799M248.866 227.367L249.499 226.799M248.866 227.367H249.499M248.866 227.367L249.499 227.934M248.866 227.367V227.934M248.866 227.367L248.232 227.934M248.866 227.367H248.232" stroke="#FEF6AA" stroke-width="0.15"/>
<path d="M253.932 225.097L253.299 224.529M253.932 225.097V224.529M253.932 225.097L254.565 224.529M253.932 225.097H254.565M253.932 225.097L254.565 225.664M253.932 225.097V225.664M253.932 225.097L253.299 225.664M253.932 225.097H253.299" stroke="#FEF6AA" stroke-width="0.15"/>
<path d="M252.666 223.961L252.032 223.394M252.666 223.961V223.394M252.666 223.961L253.299 223.394M252.666 223.961H253.299M252.666 223.961L253.299 224.529M252.666 223.961V224.529M252.666 223.961L252.032 224.529M252.666 223.961H252.032" stroke="#FEF6AA" stroke-width="0.15"/>
<path d="M248.866 225.097L248.232 224.529M248.866 225.097V224.529M248.866 225.097L249.499 224.529M248.866 225.097H249.499M248.866 225.097L249.499 225.664M248.866 225.097V225.664M248.866 225.097L248.232 225.664M248.866 225.097H248.232" stroke="#FEF6AA" stroke-width="0.15"/>
<path d="M251.399 227.367L250.766 226.799M251.399 227.367V226.799M251.399 227.367L252.032 226.799M251.399 227.367H252.032M251.399 227.367L252.032 227.934M251.399 227.367V227.934M251.399 227.367L250.766 227.934M251.399 227.367H250.766" stroke="#FEF6AA" stroke-width="0.15"/>
<path d="M256.465 227.367L255.832 226.799M256.465 227.367V226.799M256.465 227.367L257.099 226.799M256.465 227.367H257.099M256.465 227.367L257.099 227.934M256.465 227.367V227.934M256.465 227.367L255.832 227.934M256.465 227.367H255.832" stroke="#FEF6AA" stroke-width="0.15"/>
<path d="M252.666 228.502L252.032 227.934M252.666 228.502V227.934M252.666 228.502L253.299 227.934M252.666 228.502H253.299M252.666 228.502L253.299 229.07M252.666 228.502V229.07M252.666 228.502L252.032 229.07M252.666 228.502H252.032" stroke="#FEF6AA" stroke-width="0.15"/>
<path d="M250.799 222.883L250.166 222.315M250.799 222.883V222.315M250.799 222.883L251.432 222.315M250.799 222.883H251.432M250.799 222.883L251.432 223.45M250.799 222.883V223.45M250.799 222.883L250.166 223.45M250.799 222.883H250.166" stroke="#FEF6AA" stroke-width="0.15"/>
<path d="M252.666 226.232L252.032 225.664M252.666 226.232V225.664M252.666 226.232L253.299 225.664M252.666 226.232H253.299M252.666 226.232L253.299 226.799M252.666 226.232V226.799M252.666 226.232L252.032 226.799M252.666 226.232H252.032" stroke="#FEF6AA" stroke-width="0.15"/>
<path d="M256.465 225.097L255.832 224.529M256.465 225.097V224.529M256.465 225.097L257.099 224.529M256.465 225.097H257.099M256.465 225.097L257.099 225.664M256.465 225.097V225.664M256.465 225.097L255.832 225.664M256.465 225.097H255.832" stroke="#FEF6AA" stroke-width="0.15"/>
<path d="M255.799 222.883L255.166 222.315M255.799 222.883V222.315M255.799 222.883L256.432 222.315M255.799 222.883H256.432M255.799 222.883L256.432 223.45M255.799 222.883V223.45M255.799 222.883L255.166 223.45M255.799 222.883H255.166" stroke="#FEF6AA" stroke-width="0.15"/>
<path d="M257.732 226.232L257.099 225.664M257.732 226.232V225.664M257.732 226.232L258.366 225.664M257.732 226.232H258.366M257.732 226.232L258.366 226.799M257.732 226.232V226.799M257.732 226.232L257.099 226.799M257.732 226.232H257.099" stroke="#FEF6AA" stroke-width="0.15"/>
<path d="M255.199 228.502L254.566 227.934M255.199 228.502V227.934M255.199 228.502L255.832 227.934M255.199 228.502H255.832M255.199 228.502L255.832 229.07M255.199 228.502V229.07M255.199 228.502L254.566 229.07M255.199 228.502H254.566" stroke="#FEF6AA" stroke-width="0.15"/>
<path d="M262.165 228.502H244.432C244.432 228.502 246.172 236.691 250.343 238.151C252.522 238.913 254.343 238.486 256.254 238.151C258.166 237.815 262.165 228.502 262.165 228.502Z" fill="#F0E3DF"/>
<path d="M256.666 237.815C257.48 236.919 258.149 236.169 258.71 235.466C257.767 236.943 257.39 237.667 257.734 237.815H258.166C257.969 237.854 257.826 237.855 257.734 237.815H256.666Z" fill="black"/>
<path d="M255.055 228.815C257.573 228.823 259.441 229.132 261.666 228.815C260.701 233.176 259.689 234.49 256.666 237.815H258.166M264.166 237.815H258.166M258.166 237.815C257.026 238.038 257.699 237.008 259.614 234.071" stroke="black" stroke-width="0.4" stroke-linecap="round" stroke-linejoin="round"/>
<path d="M224.166 221.315H240.166V234.315C240.166 236.524 238.375 238.315 236.166 238.315H228.166C225.956 238.315 224.166 236.524 224.166 234.315V221.315Z" fill="#F0E3DF"/>
<path d="M235.555 238.315C239.055 237.815 240.312 236.315 240.312 231.036C239.737 234.868 239.276 236.893 235.555 238.315Z" fill="black"/>
<path d="M231.055 238.254L235.555 238.315M240.312 227.13L240.312 231.036M240.312 231.036C240.312 236.315 239.055 237.815 235.555 238.315M240.312 231.036C239.737 234.868 239.276 236.893 235.555 238.315" stroke="black" stroke-width="0.4"/>
<path d="M231.415 207.505C231.415 207.505 225.975 205.2 228.938 221.315H236.987C237.774 204.626 231.415 207.505 231.415 207.505Z" fill="#42D37D" style="mix-blend-mode:multiply"/>
<path d="M230.526 207.505C230.526 207.505 225.086 205.2 228.049 221.315H236.098C236.885 204.626 230.526 207.505 230.526 207.505Z" fill="#42D37D"/>
<line x1="228.024" y1="211.457" x2="227.024" y2="210.457" stroke="#FEF6AA" stroke-width="0.4"/>
<line x1="229.993" y1="209.432" x2="230.711" y2="208.214" stroke="#FEF6AA" stroke-width="0.4"/>
<line x1="233.993" y1="217.432" x2="234.711" y2="216.214" stroke="#FEF6AA" stroke-width="0.4"/>
<line x1="230.993" y1="215.432" x2="231.711" y2="214.214" stroke="#FEF6AA" stroke-width="0.4"/>
<line x1="228.993" y1="213.432" x2="229.711" y2="212.214" stroke="#FEF6AA" stroke-width="0.4"/>
<line x1="228.993" y1="218.432" x2="229.711" y2="217.214" stroke="#FEF6AA" stroke-width="0.4"/>
<line x1="231.993" y1="217.432" x2="232.711" y2="216.214" stroke="#FEF6AA" stroke-width="0.4"/>
<line x1="227.196" y1="210.118" x2="228.594" y2="210.331" stroke="#FEF6AA" stroke-width="0.4"/>
<line x1="227.196" y1="217.118" x2="228.594" y2="217.331" stroke="#FEF6AA" stroke-width="0.4"/>
<line x1="235.196" y1="215.118" x2="236.594" y2="215.331" stroke="#FEF6AA" stroke-width="0.4"/>
<line x1="232.364" y1="211.96" x2="233.009" y2="210.702" stroke="#FEF6AA" stroke-width="0.4"/>
<line x1="236.402" y1="214.03" x2="235.091" y2="213.501" stroke="#FEF6AA" stroke-width="0.4"/>
<line x1="236.518" y1="211.815" x2="235.105" y2="211.744" stroke="#FEF6AA" stroke-width="0.4"/>
<line x1="235.507" y1="210.316" x2="234.375" y2="211.164" stroke="#FEF6AA" stroke-width="0.4"/>
<line x1="234.538" y1="209.416" x2="233.297" y2="210.094" stroke="#FEF6AA" stroke-width="0.4"/>
<line x1="227.402" y1="214.03" x2="226.091" y2="213.501" stroke="#FEF6AA" stroke-width="0.4"/>
<line x1="227.402" y1="212.03" x2="226.091" y2="211.501" stroke="#FEF6AA" stroke-width="0.4"/>
<line x1="227.556" y1="215.575" x2="226.198" y2="215.969" stroke="#FEF6AA" stroke-width="0.4"/>
<line x1="229.402" y1="216.03" x2="228.091" y2="215.501" stroke="#FEF6AA" stroke-width="0.4"/>
<line x1="232.402" y1="213.03" x2="231.091" y2="212.501" stroke="#FEF6AA" stroke-width="0.4"/>
<line x1="231.402" y1="211.03" x2="230.091" y2="210.501" stroke="#FEF6AA" stroke-width="0.4"/>
<line x1="230.789" y1="214.601" x2="230" y2="213.427" stroke="#FEF6AA" stroke-width="0.4"/>
<line x1="234.517" y1="215.344" x2="233.352" y2="216.145" stroke="#FEF6AA" stroke-width="0.4"/>
<line x1="233.672" y1="214.299" x2="233.572" y2="212.888" stroke="#FEF6AA" stroke-width="0.4"/>
<line x1="229.402" y1="209.03" x2="228.091" y2="208.501" stroke="#FEF6AA" stroke-width="0.4"/>
<line x1="232.402" y1="210.03" x2="231.091" y2="209.501" stroke="#FEF6AA" stroke-width="0.4"/>
<line x1="232.402" y1="208.03" x2="231.091" y2="207.501" stroke="#FEF6AA" stroke-width="0.4"/>
<path d="M325.055 278.815H337.055H386.555C420.386 285.023 459.055 349.815 459.055 351.315C459.055 352.815 461.555 372.315 459.055 376.315C456.555 380.315 427.988 379.972 392.555 380.315H339.055H325.055V361.315L339.055 359.126V313.815L325.055 357.815L286.555 380.315L281.055 365.815L303.055 344.815L325.055 278.815Z" fill="#CEA6F5"/>
<path d="M306.262 355.375L319.262 360.875H325.759V379.375H319.262L308.055 372.815C308.055 372.815 305.76 371.134 304.055 371.315C302.349 371.496 297.657 374.614 296.805 374.815C295.331 375.35 291.716 375.193 290.759 374.815C290.023 375.08 289.482 375.086 288.259 374.815C286.434 375.17 285.649 375.205 286.259 373.875L296.829 361.59C296.907 361.374 297.051 361.209 297.262 361.087C297.808 360.772 298.803 360.75 300.262 360.875C299.389 358.284 299.626 357.335 303.262 357.875C303.463 355.516 304.241 355.141 306.262 355.375Z" fill="#EFC644"/>
<path d="M433.661 349.546L441.351 350.815L436.408 356.841L433.661 349.546Z" stroke="#ECBE2D"/>
<path d="M408.231 306.935L400.861 309.47L402.35 301.819L408.231 306.935Z" stroke="#FEF6AA"/>
<path d="M427.555 351.644C427.555 351.644 436.555 351.815 437.055 350.815C437.555 349.815 423.805 332.565 423.805 332.565C429.473 343.205 431.177 348.052 427.555 351.644Z" fill="black"/>
<path d="M410.555 314.315L423.805 332.565M327.555 360.815C328.555 360.315 391.31 355.586 427.555 351.644M427.555 351.644C427.555 351.644 436.555 351.815 437.055 350.815C437.555 349.815 423.805 332.565 423.805 332.565M427.555 351.644C431.177 348.052 429.473 343.205 423.805 332.565" stroke="black" stroke-width="0.7"/>
<path d="M405.055 270.815C405.055 284.899 388.489 296.315 368.055 296.315C347.62 296.315 331.055 284.899 331.055 270.815C331.055 256.732 347.62 245.315 368.055 245.315C388.489 245.315 405.055 256.732 405.055 270.815Z" fill="#CEA6F5"/>
<path d="M391.555 275.315C391.106 271.556 390.446 269.133 388.612 266.815L385.555 273.815L391.555 275.315Z" fill="black"/>
<path d="M385.555 263.815C386.837 264.86 387.831 265.828 388.612 266.815M388.612 266.815C390.446 269.133 391.106 271.556 391.555 275.315L385.555 273.815L388.612 266.815Z" stroke="black" stroke-width="0.7"/>
<path d="M380.055 256.815C374.922 272.715 365.555 284.286 354.055 285.315C342.555 286.344 331.384 276.241 330.555 256.286C333.024 239.641 341.632 226.472 354.055 226.315C368.414 226.315 380.055 239.971 380.055 256.815Z" fill="#EFC644"/>
<path d="M362.606 295.963L355.538 292.679L361.916 288.2L362.606 295.963Z" stroke="#FA3AEC"/>
<path d="M378.555 267.315H375.555L360.055 282.815C360.238 290.004 361.383 293.791 366.555 299.815C386.055 300.815 386.055 282.815 386.055 278.315L380.555 274.315L378.555 267.315Z" fill="#EFC644"/>
<path d="M366.555 277.905C364.735 279.705 362.75 281.213 360.055 282.758C360.429 290.79 361.03 292.413 365.555 297.815L368.555 275.747C367.892 276.518 367.235 277.232 366.555 277.905Z" fill="black"/>
<path d="M359.055 283.315C359.399 283.129 359.732 282.943 360.055 282.758M372.055 271.315C370.784 273.008 369.662 274.458 368.555 275.747M360.055 282.758C362.75 281.213 364.735 279.705 366.555 277.905C367.235 277.232 367.892 276.518 368.555 275.747M360.055 282.758C360.429 290.79 361.03 292.413 365.555 297.815L368.555 275.747" stroke="black" stroke-width="0.7" stroke-linecap="round"/>
<path d="M369.103 324.157L376.351 321.29L375.21 329L369.103 324.157Z" stroke="#ECBE2D"/>
<path d="M397.655 277.433L405.322 278.831L400.278 284.773L397.655 277.433Z" stroke="#AFE9C6"/>
<path d="M341.324 333.557L344.346 340.742L336.613 339.766L341.324 333.557Z" stroke="#AFE9C6"/>
<path d="M363.017 371.045L361.661 363.369L368.986 366.032L363.017 371.045Z" stroke="#FEF6AA"/>
<path d="M398.266 353.293L396.909 345.618L404.235 348.281L398.266 353.293Z" stroke="#FA3AEC"/>
<path d="M417.266 381.293L415.909 373.618L423.235 376.281L417.266 381.293Z" stroke="#AFE9C6"/>
<path d="M320.997 338.916L319.616 346.587L313.664 341.556L320.997 338.916Z" stroke="#FA3AEC"/>
<path d="M328.798 301.338L336.578 301.8L332.288 308.307L328.798 301.338Z" stroke="#ECBE2D"/>
<path d="M382.696 257.106L388.751 252.199L389.973 259.897L382.696 257.106Z" stroke="#FEF6AA"/>
<path d="M371.055 225.577C387.157 227.868 389.055 264.815 380.055 263.315C371.055 261.815 362.927 250.552 356.055 247.315C344.082 241.677 339.884 240.58 337.555 235.815C345.033 227.515 348.378 225.628 371.055 225.577Z" fill="black"/>
<ellipse cx="383.555" cy="226.315" rx="12.5" ry="9" fill="black"/>
<path d="M381.555 236.815C392.916 237.876 395.072 235.352 398.555 226.815" stroke="black" stroke-linecap="round" stroke-linejoin="round"/>
<circle cx="332.701" cy="255.156" r="0.921553" fill="black"/>
<rect x="327.78" y="247.656" width="5.52932" height="2.55003" rx="1.27501" transform="rotate(-26.3343 327.78 247.656)" fill="#121212"/>
<path d="M339.632 268.959C341.705 268.356 345.224 268.073 346.083 263.43" stroke="black" stroke-width="0.5" stroke-linecap="round"/>
<path d="M338.126 251.594L337.259 261.802C337.215 262.322 337.373 262.841 337.731 263.222C338.316 263.843 339.238 264.714 339.789 264.684" stroke="black" stroke-width="0.5" stroke-linecap="round"/>
<circle cx="344.026" cy="256.999" r="0.921553" fill="black"/>
<rect x="344.671" y="249.972" width="5.52932" height="2.57014" rx="1.28507" transform="rotate(37.5469 344.671 249.972)" fill="#121212"/>
<path d="M334.055 269.315V273.815" stroke="black" stroke-width="0.5" stroke-linecap="round"/>
<path d="M336.055 272.315V276.815" stroke="black" stroke-width="0.5" stroke-linecap="round"/>
<path d="M339.055 276.315V280.815" stroke="black" stroke-width="0.5" stroke-linecap="round"/>
<path d="M342.055 279.315V283.815" stroke="black" stroke-width="0.5" stroke-linecap="round"/>
<path d="M345.055 281.315V285.815" stroke="black" stroke-width="0.5" stroke-linecap="round"/>
<path d="M332.055 265.315V269.815" stroke="black" stroke-width="0.5" stroke-linecap="round"/>
<path d="M338.839 266.315L338.055 267.422" stroke="black" stroke-width="0.5" stroke-linecap="round"/>
<path d="M339.924 266.346L339.141 267.452" stroke="black" stroke-width="0.5" stroke-linecap="round"/>
<path d="M343.223 263.344L341.922 263.728" stroke="black" stroke-width="0.5" stroke-linecap="round"/>
<path d="M344.057 264.04L342.756 264.424" stroke="black" stroke-width="0.5" stroke-linecap="round"/>
<path d="M359.055 274.315V278.815" stroke="black" stroke-width="0.5" stroke-linecap="round"/>
<path d="M362.055 272.315V276.815" stroke="black" stroke-width="0.5" stroke-linecap="round"/>
<path d="M365.055 270.315V274.815" stroke="black" stroke-width="0.5" stroke-linecap="round"/>
<path d="M370.055 265.315V269.815" stroke="black" stroke-width="0.5" stroke-linecap="round"/>
<path d="M368.055 268.315V272.815" stroke="black" stroke-width="0.5" stroke-linecap="round"/>
<path d="M356.055 277.315V281.815" stroke="black" stroke-width="0.5" stroke-linecap="round"/>
<ellipse cx="376.055" cy="259.815" rx="8" ry="7.5" fill="#EFC644"/>
<path d="M374.055 261.315C374.555 260.149 376.355 257.915 379.555 258.315" stroke="black" stroke-width="0.5" stroke-linecap="round"/>
<rect x="193.055" y="375.248" width="113" height="5" fill="#715545"/>
<rect x="193.055" y="328.248" width="90.5686" height="49.686" transform="rotate(-0.590294 193.055 328.248)" fill="#715545"/>
</svg>
