<svg width="516" height="284" viewBox="0 0 516 284" fill="none" xmlns="http://www.w3.org/2000/svg">
<line y1="282.959" x2="515.381" y2="282.959" stroke="black"/>
<line x1="38.6536" y1="52.7987" x2="210.984" y2="52.7987" stroke="black" stroke-width="0.7"/>
<path d="M145 18.9611C144.534 20.7851 145.663 22.0041 143.38 23.7038C143.122 23.5833 143.006 23.5343 142.848 23.4896C142.841 23.4964 142.835 23.5032 142.828 23.5101C142.835 23.5032 142.841 23.4963 142.847 23.4894C142.685 23.4437 142.479 23.4025 142.034 23.2938H141.24L140.584 23.2938L140.001 23.2933L138.858 23.2938L138.426 23.2938L138.064 23.2938C137.628 23.2938 136.985 23.4523 136.476 23.6585C136.149 23.7908 135.878 23.9429 135.751 24.0851C134.446 22.4468 133.849 21.1763 133.852 19.5843C134.779 21.1313 135.388 22.2539 136.476 23.6585C135.181 21.9376 134.71 20.6472 134.759 18.6773C135.644 20.7734 136.215 21.8081 137.096 23.0515C136.052 21.4925 135.739 19.1039 135.678 18.7258C135.67 18.7001 135.666 18.6836 135.667 18.6773C135.668 18.6675 135.672 18.6849 135.678 18.7258C135.811 19.1331 137.055 21.8625 138.064 23.2938C137.423 21.4825 136.806 20.4058 136.234 18.6773C137.613 20.0842 138.108 21.1507 138.357 22.7806C138.154 21.2901 137.958 20.2497 137.028 18.6773C137.597 18.8691 137.963 19.2931 138.214 19.8705C138.252 19.4981 138.339 19.1083 138.485 18.6774C138.712 19.677 139.016 20.4522 139.262 21.2915C139.435 20.1582 139.561 19.1786 140.005 18.7166C140.138 19.8514 140.22 21.8867 139.649 23.2541L140.001 23.2933L140.139 20.1538C140.139 20.1538 141.238 21.1939 140.584 23.2938C141.618 21.1901 139.64 20.0818 141.112 18.6773C140.881 19.6415 141.348 20.3985 141.604 21.1677C141.783 20.1207 141.969 19.0196 142.016 18.7226C142.015 18.706 142.016 18.691 142.019 18.6773C142.031 18.6201 142.029 18.6411 142.016 18.7226C142.024 19.0407 142.599 19.8846 142.787 20.8722L143.38 18.9611C143.399 19.4494 143.878 19.998 144.004 20.759C144.155 20.2282 144.404 19.6551 145 18.9611Z" fill="#FF3A99"/>
<path d="M145 19.9009C144.534 21.7249 145.663 22.944 143.38 24.6437C143.122 24.5231 143.006 24.4741 142.848 24.4295C142.841 24.4363 142.835 24.4431 142.828 24.4499C142.835 24.443 142.841 24.4361 142.847 24.4292C142.685 24.3836 142.479 24.3424 142.034 24.2337H141.24L140.584 24.2337L140.001 24.2332L138.858 24.2337L138.426 24.2337L138.064 24.2337C137.628 24.2337 136.985 24.3922 136.476 24.5983C136.149 24.7307 135.878 24.8827 135.751 25.025C134.446 23.3866 133.849 22.1161 133.852 20.5241C134.779 22.0711 135.388 23.1938 136.476 24.5983C135.181 22.8775 134.71 21.5871 134.759 19.6172C135.644 21.7133 136.215 22.7479 137.096 23.9914C136.052 22.4323 135.739 20.0437 135.678 19.6657C135.67 19.6399 135.666 19.6234 135.667 19.6172C135.668 19.6073 135.672 19.6247 135.678 19.6657C135.811 20.0729 137.055 22.8024 138.064 24.2337C137.423 22.4224 136.806 21.3457 136.234 19.6172C137.613 21.024 138.108 22.0906 138.357 23.7204C138.154 22.2299 137.958 21.1896 137.028 19.6172C137.597 19.809 137.963 20.2329 138.214 20.8104C138.252 20.4379 138.339 20.0482 138.485 19.6173C138.712 20.6168 139.016 21.392 139.262 22.2313C139.435 21.0981 139.561 20.1185 140.005 19.6565C140.138 20.7912 140.22 22.8265 139.649 24.1939L140.001 24.2332L140.139 21.0936C140.139 21.0936 141.238 22.1338 140.584 24.2337C141.618 22.13 139.64 21.0216 141.112 19.6172C140.881 20.5814 141.348 21.3383 141.604 22.1075C141.783 21.0605 141.969 19.9594 142.016 19.6624C142.015 19.6459 142.016 19.6308 142.019 19.6172C142.031 19.5599 142.029 19.5809 142.016 19.6624C142.024 19.9805 142.599 20.8244 142.787 21.8121L143.38 19.9009C143.399 20.3892 143.878 20.9378 144.004 21.6988C144.155 21.168 144.404 20.5949 145 19.9009Z" fill="#FF3A99" style="mix-blend-mode:multiply"/>
<path d="M148.351 29.6431C148.351 32.6722 144.745 35.1278 140.298 35.1278C135.85 35.1278 132.245 32.6722 132.245 29.6431C132.245 26.614 135.85 24.1585 140.298 24.1585C144.745 24.1585 148.351 26.614 148.351 29.6431Z" fill="#42D37D" style="mix-blend-mode:multiply"/>
<path d="M147.062 29.5519C147.062 32.581 143.409 35.0366 138.902 35.0366C134.395 35.0366 130.742 32.581 130.742 29.5519C130.742 26.5228 134.395 24.0673 138.902 24.0673C143.409 24.0673 147.062 26.5228 147.062 29.5519Z" fill="#42D37D"/>
<path d="M133.802 26.8096L132.781 25.8955M133.802 26.8096V25.8955M133.802 26.8096L134.822 25.8955M133.802 26.8096H134.822M133.802 26.8096L134.822 27.7237M133.802 26.8096V27.7237M133.802 26.8096L132.781 27.7237M133.802 26.8096H132.781" stroke="#FEF6AA" stroke-width="0.15"/>
<path d="M139.922 24.9814L138.902 24.0673M139.922 24.9814V24.0673M139.922 24.9814L140.942 24.0673M139.922 24.9814H140.942M139.922 24.9814L140.942 25.8955M139.922 24.9814V25.8955M139.922 24.9814L138.902 25.8955M139.922 24.9814H138.902" stroke="#FEF6AA" stroke-width="0.15"/>
<path d="M131.762 32.2942L130.742 31.3801M131.762 32.2942V31.3801M131.762 32.2942L132.782 31.3801M131.762 32.2942H132.782M131.762 32.2942L132.782 33.2083M131.762 32.2942V33.2083M131.762 32.2942L130.742 33.2083M131.762 32.2942H130.742" stroke="#FEF6AA" stroke-width="0.15"/>
<path d="M139.922 28.6378L138.902 27.7237M139.922 28.6378V27.7237M139.922 28.6378L140.942 27.7237M139.922 28.6378H140.942M139.922 28.6378L140.942 29.5519M139.922 28.6378V29.5519M139.922 28.6378L138.902 29.5519M139.922 28.6378H138.902" stroke="#FEF6AA" stroke-width="0.15"/>
<path d="M137.882 26.8096L136.862 25.8955M137.882 26.8096V25.8955M137.882 26.8096L138.902 25.8955M137.882 26.8096H138.902M137.882 26.8096L138.902 27.7237M137.882 26.8096V27.7237M137.882 26.8096L136.862 27.7237M137.882 26.8096H136.862" stroke="#FEF6AA" stroke-width="0.15"/>
<path d="M131.762 28.6378L130.742 27.7237M131.762 28.6378V27.7237M131.762 28.6378L132.782 27.7237M131.762 28.6378H132.782M131.762 28.6378L132.782 29.5519M131.762 28.6378V29.5519M131.762 28.6378L130.742 29.5519M131.762 28.6378H130.742" stroke="#FEF6AA" stroke-width="0.15"/>
<path d="M135.842 32.2942L134.822 31.3801M135.842 32.2942V31.3801M135.842 32.2942L136.862 31.3801M135.842 32.2942H136.862M135.842 32.2942L136.862 33.2083M135.842 32.2942V33.2083M135.842 32.2942L134.822 33.2083M135.842 32.2942H134.822" stroke="#FEF6AA" stroke-width="0.15"/>
<path d="M144.002 32.2942L142.982 31.3801M144.002 32.2942V31.3801M144.002 32.2942L145.022 31.3801M144.002 32.2942H145.022M144.002 32.2942L145.022 33.2083M144.002 32.2942V33.2083M144.002 32.2942L142.982 33.2083M144.002 32.2942H142.982" stroke="#FEF6AA" stroke-width="0.15"/>
<path d="M137.882 34.1225L136.862 33.2084M137.882 34.1225V33.2084M137.882 34.1225L138.902 33.2084M137.882 34.1225H138.902M137.882 34.1225L138.902 35.0366M137.882 34.1225V35.0366M137.882 34.1225L136.862 35.0366M137.882 34.1225H136.862" stroke="#FEF6AA" stroke-width="0.15"/>
<path d="M134.875 25.0723L133.855 24.1582M134.875 25.0723V24.1582M134.875 25.0723L135.896 24.1582M134.875 25.0723H135.896M134.875 25.0723L135.896 25.9864M134.875 25.0723V25.9864M134.875 25.0723L133.855 25.9864M134.875 25.0723H133.855" stroke="#FEF6AA" stroke-width="0.15"/>
<path d="M137.882 30.466L136.862 29.5519M137.882 30.466V29.5519M137.882 30.466L138.902 29.5519M137.882 30.466H138.902M137.882 30.466L138.902 31.3801M137.882 30.466V31.3801M137.882 30.466L136.862 31.3801M137.882 30.466H136.862" stroke="#FEF6AA" stroke-width="0.15"/>
<path d="M144.002 28.6378L142.982 27.7237M144.002 28.6378V27.7237M144.002 28.6378L145.022 27.7237M144.002 28.6378H145.022M144.002 28.6378L145.022 29.5519M144.002 28.6378V29.5519M144.002 28.6378L142.982 29.5519M144.002 28.6378H142.982" stroke="#FEF6AA" stroke-width="0.15"/>
<path d="M142.928 25.0723L141.908 24.1582M142.928 25.0723V24.1582M142.928 25.0723L143.948 24.1582M142.928 25.0723H143.948M142.928 25.0723L143.948 25.9864M142.928 25.0723V25.9864M142.928 25.0723L141.908 25.9864M142.928 25.0723H141.908" stroke="#FEF6AA" stroke-width="0.15"/>
<path d="M146.042 30.466L145.022 29.5519M146.042 30.466V29.5519M146.042 30.466L147.062 29.5519M146.042 30.466H147.062M146.042 30.466L147.062 31.3801M146.042 30.466V31.3801M146.042 30.466L145.022 31.3801M146.042 30.466H145.022" stroke="#FEF6AA" stroke-width="0.15"/>
<path d="M141.962 34.1225L140.942 33.2084M141.962 34.1225V33.2084M141.962 34.1225L142.982 33.2084M141.962 34.1225H142.982M141.962 34.1225L142.982 35.0366M141.962 34.1225V35.0366M141.962 34.1225L140.942 35.0366M141.962 34.1225H140.942" stroke="#FEF6AA" stroke-width="0.15"/>
<path d="M153.182 34.1225H124.622C124.622 34.1225 127.424 47.3115 134.142 49.6623C137.651 50.8904 140.584 50.2027 143.662 49.6623C146.74 49.122 153.182 34.1225 153.182 34.1225Z" fill="black"/>
<path d="M144.324 49.1222C145.637 47.679 146.713 46.4711 147.617 45.339C146.099 47.7176 145.491 48.8828 146.046 49.1222H146.74C146.423 49.1841 146.193 49.1859 146.046 49.1222H144.324Z" fill="#F0E3DF"/>
<path d="M141.73 34.6271C145.785 34.6396 148.795 35.1366 152.377 34.6271C150.824 41.6506 149.194 43.7659 144.324 49.1222H146.74M156.404 49.1222H146.74M146.74 49.1222C144.904 49.4809 145.989 47.8219 149.073 43.0921" stroke="#F0E3DF" stroke-width="0.4" stroke-linecap="round" stroke-linejoin="round"/>
<path d="M91.9807 22.5479H117.75V45.9275C117.75 48.1367 115.959 49.9275 113.75 49.9275H95.9807C93.7716 49.9275 91.9807 48.1367 91.9807 45.9275V22.5479Z" fill="black"/>
<path d="M110.324 49.9275C115.961 49.1222 117.986 46.7064 117.986 38.2039C117.06 44.3752 116.317 47.6367 110.324 49.9275Z" fill="#F0E3DF"/>
<path d="M103.076 49.8291L110.324 49.9275M117.986 31.9121L117.986 38.2039M117.986 38.2039C117.986 46.7064 115.961 49.1222 110.324 49.9275M117.986 38.2039C117.06 44.3752 116.317 47.6367 110.324 49.9275" stroke="#F0E3DF" stroke-width="0.4"/>
<path d="M103.656 0.304916C103.656 0.304916 94.8951 -3.40705 99.6673 22.5479H112.631C113.898 -4.33075 103.656 0.304916 103.656 0.304916Z" fill="#42D37D" style="mix-blend-mode:multiply"/>
<path d="M102.224 0.304916C102.224 0.304916 93.4632 -3.40705 98.2354 22.5479H111.199C112.466 -4.33075 102.224 0.304916 102.224 0.304916Z" fill="#42D37D"/>
<line x1="98.2817" y1="6.58368" x2="96.6711" y2="4.97312" stroke="#FEF6AA" stroke-width="0.4"/>
<line x1="101.472" y1="3.47159" x2="102.628" y2="1.50904" stroke="#FEF6AA" stroke-width="0.4"/>
<line x1="107.914" y1="16.3561" x2="109.07" y2="14.3936" stroke="#FEF6AA" stroke-width="0.4"/>
<line x1="103.082" y1="13.135" x2="104.238" y2="11.1724" stroke="#FEF6AA" stroke-width="0.4"/>
<line x1="99.8614" y1="9.91385" x2="101.017" y2="7.9513" stroke="#FEF6AA" stroke-width="0.4"/>
<line x1="99.8614" y1="17.9667" x2="101.017" y2="16.0041" stroke="#FEF6AA" stroke-width="0.4"/>
<line x1="104.693" y1="16.3561" x2="105.849" y2="14.3936" stroke="#FEF6AA" stroke-width="0.4"/>
<line x1="96.8427" y1="4.63399" x2="99.0943" y2="4.97794" stroke="#FEF6AA" stroke-width="0.4"/>
<line x1="96.8427" y1="15.9079" x2="99.0943" y2="16.2519" stroke="#FEF6AA" stroke-width="0.4"/>
<line x1="109.727" y1="12.6868" x2="111.979" y2="13.0308" stroke="#FEF6AA" stroke-width="0.4"/>
<line x1="105.294" y1="7.53657" x2="106.332" y2="5.50954" stroke="#FEF6AA" stroke-width="0.4"/>
<line x1="111.735" y1="10.7005" x2="109.622" y2="9.84888" stroke="#FEF6AA" stroke-width="0.4"/>
<line x1="111.881" y1="7.12453" x2="109.606" y2="7.01106" stroke="#FEF6AA" stroke-width="0.4"/>
<line x1="110.174" y1="4.73487" x2="108.351" y2="6.10022" stroke="#FEF6AA" stroke-width="0.4"/>
<line x1="108.627" y1="3.27685" x2="106.628" y2="4.36812" stroke="#FEF6AA" stroke-width="0.4"/>
<line x1="97.2394" y1="10.7005" x2="95.1269" y2="9.84888" stroke="#FEF6AA" stroke-width="0.4"/>
<line x1="97.2394" y1="7.47933" x2="95.1269" y2="6.62775" stroke="#FEF6AA" stroke-width="0.4"/>
<line x1="97.4075" y1="13.1854" x2="95.2198" y2="13.8194" stroke="#FEF6AA" stroke-width="0.4"/>
<line x1="100.461" y1="13.9216" x2="98.3481" y2="13.07" stroke="#FEF6AA" stroke-width="0.4"/>
<line x1="105.292" y1="9.0899" x2="103.18" y2="8.23831" stroke="#FEF6AA" stroke-width="0.4"/>
<line x1="103.682" y1="5.86877" x2="101.569" y2="5.01718" stroke="#FEF6AA" stroke-width="0.4"/>
<line x1="102.749" y1="11.6652" x2="101.478" y2="9.775" stroke="#FEF6AA" stroke-width="0.4"/>
<line x1="108.584" y1="12.8299" x2="106.707" y2="14.1203" stroke="#FEF6AA" stroke-width="0.4"/>
<line x1="107.413" y1="11.2393" x2="107.252" y2="8.96731" stroke="#FEF6AA" stroke-width="0.4"/>
<line x1="100.461" y1="2.64764" x2="98.3481" y2="1.79605" stroke="#FEF6AA" stroke-width="0.4"/>
<line x1="105.292" y1="4.2582" x2="103.18" y2="3.40662" stroke="#FEF6AA" stroke-width="0.4"/>
<line x1="105.292" y1="1.03707" x2="103.18" y2="0.185485" stroke="#FEF6AA" stroke-width="0.4"/>
<path d="M254.469 115.155H273.796H353.519C408.007 125.154 470.285 229.506 470.285 231.921C470.285 234.337 474.311 265.743 470.285 272.186C466.259 278.628 420.25 278.074 363.182 278.628H277.017H254.469V248.027L277.017 244.501V171.525L254.469 242.39L192.463 278.628L183.604 255.275L219.037 221.453L254.469 115.155Z" fill="#CEA6F5"/>
<path d="M224.202 238.46L245.14 247.318H255.603V277.114H245.14L227.09 266.549C227.09 266.549 223.394 263.841 220.647 264.133C217.9 264.424 210.344 269.445 208.972 269.77C206.597 270.631 200.776 270.377 199.233 269.77C198.049 270.196 197.176 270.206 195.207 269.77C192.268 270.341 191.003 270.397 191.986 268.256L209.01 248.47C209.136 248.121 209.368 247.855 209.707 247.659C210.587 247.152 212.189 247.116 214.539 247.318C213.133 243.145 213.515 241.617 219.37 242.487C219.695 238.688 220.947 238.083 224.202 238.46Z" fill="#EFC644"/>
<path d="M428.915 228.685L442.344 230.9L433.711 241.423L428.915 228.685Z" stroke="#ECBE2D"/>
<path d="M389.03 160.56L376.159 164.987L378.76 151.628L389.03 160.56Z" stroke="#FEF6AA"/>
<path d="M419.552 232.45C419.552 232.45 434.047 232.727 434.853 231.116C435.658 229.506 413.513 201.723 413.513 201.723C422.642 218.859 425.386 226.666 419.552 232.45Z" fill="black"/>
<path d="M392.173 172.33L413.513 201.723M258.496 247.222C260.106 246.416 361.178 238.799 419.552 232.45M419.552 232.45C419.552 232.45 434.047 232.727 434.853 231.116C435.658 229.506 413.513 201.723 413.513 201.723M419.552 232.45C425.386 226.666 422.642 218.859 413.513 201.723" stroke="black" stroke-width="0.7"/>
<path d="M383.315 102.271C383.315 124.953 356.635 143.34 323.724 143.34C290.813 143.34 264.133 124.953 264.133 102.271C264.133 79.5889 290.813 61.2015 323.724 61.2015C356.635 61.2015 383.315 79.5889 383.315 102.271Z" fill="#CEA6F5"/>
<path d="M361.572 109.518C360.849 103.464 359.787 99.562 356.833 95.8286L351.908 107.103L361.572 109.518Z" fill="black"/>
<path d="M351.908 90.9969C353.973 92.679 355.575 94.2385 356.833 95.8286M356.833 95.8286C359.787 99.562 360.849 103.464 361.572 109.518L351.908 107.103L356.833 95.8286Z" stroke="black" stroke-width="0.7"/>
<path d="M343.05 80.1222C334.784 105.73 319.697 124.366 301.176 126.023C282.654 127.681 264.662 111.409 263.327 79.27C266.714 53.02 279.533 32.7987 301.176 31C324.302 31 343.05 52.9928 343.05 80.1222Z" fill="#EFC644"/>
<path d="M315.3 143.273L302.956 137.538L314.095 129.716L315.3 143.273Z" stroke="#FA3AEC"/>
<path d="M340.635 96.6339H335.803L310.839 121.598C311.135 133.175 312.978 139.274 321.308 148.977C352.714 150.588 352.714 121.598 352.714 114.35L343.856 107.908L340.635 96.6339Z" fill="#EFC644"/>
<path d="M321.308 113.689C318.376 116.588 315.18 119.017 310.839 121.505C311.442 134.442 312.409 137.055 319.697 145.756L324.529 110.214C323.462 111.456 322.403 112.605 321.308 113.689Z" fill="black"/>
<path d="M309.229 122.403C309.783 122.102 310.319 121.803 310.839 121.505M330.166 103.076C328.12 105.802 326.312 108.138 324.529 110.214M310.839 121.505C315.18 119.017 318.376 116.588 321.308 113.689C322.403 112.605 323.462 111.456 324.529 110.214M310.839 121.505C311.442 134.442 312.409 137.055 319.697 145.756L324.529 110.214" stroke="black" stroke-width="0.7" stroke-linecap="round"/>
<path d="M324.808 188.091L337.465 183.085L335.472 196.549L324.808 188.091Z" stroke="#ECBE2D"/>
<path d="M364.332 112.237L377.723 114.678L368.914 125.054L364.332 112.237Z" stroke="#AFE9C6"/>
<path d="M286.395 204.615L291.671 217.161L278.168 215.457L286.395 204.615Z" stroke="#AFE9C6"/>
<path d="M315.402 264.271L313.033 250.868L325.825 255.517L315.402 264.271Z" stroke="#FEF6AA"/>
<path d="M372.173 235.681L369.803 222.278L382.595 226.928L372.173 235.681Z" stroke="#FA3AEC"/>
<path d="M402.796 272.866L400.426 259.463L413.218 264.112L402.796 272.866Z" stroke="#AFE9C6"/>
<path d="M239.407 211.333L236.996 224.728L226.601 215.943L239.407 211.333Z" stroke="#FA3AEC"/>
<path d="M254.326 152.561L267.913 153.368L260.421 164.731L254.326 152.561Z" stroke="#ECBE2D"/>
<path d="M346.701 80.2875L357.275 71.7179L359.41 85.1602L346.701 80.2875Z" stroke="#FEF6AA"/>
<path d="M328.555 29.4118C354.489 33.1021 357.545 92.6077 343.05 90.1917C328.555 87.7758 315.464 69.6349 304.397 64.4227C285.114 55.3417 278.353 53.5755 274.601 45.9011C286.645 32.5325 292.033 29.4934 328.555 29.4118Z" fill="black"/>
<ellipse cx="348.687" cy="30.6007" rx="20.1321" ry="14.4951" fill="black"/>
<path d="M345.466 47.5117C363.764 49.2205 367.236 45.1546 372.846 31.406" stroke="black" stroke-linecap="round" stroke-linejoin="round"/>
<circle cx="266.784" cy="77.0507" r="1.48422" fill="black"/>
<rect x="258.858" y="64.9713" width="8.90533" height="4.10698" rx="2.05349" transform="rotate(-26.3343 258.858 64.9713)" fill="#121212"/>
<path d="M277.948 99.2812C281.285 98.3101 286.954 97.8538 288.337 90.3759" stroke="black" stroke-width="0.5" stroke-linecap="round"/>
<path d="M275.522 71.3144L274.083 88.2493C274.039 88.7698 274.198 89.2868 274.548 89.6746C275.431 90.6528 277.196 92.4514 278.2 92.3958" stroke="black" stroke-width="0.5" stroke-linecap="round"/>
<circle cx="285.024" cy="80.0192" r="1.48422" fill="black"/>
<rect x="286.062" y="68.7012" width="8.90533" height="4.13938" rx="2.06969" transform="rotate(37.5469 286.062 68.7012)" fill="#121212"/>
<path d="M268.965 99.855V107.103" stroke="black" stroke-width="0.5" stroke-linecap="round"/>
<path d="M272.186 104.687V111.934" stroke="black" stroke-width="0.5" stroke-linecap="round"/>
<path d="M277.017 111.129V118.377" stroke="black" stroke-width="0.5" stroke-linecap="round"/>
<path d="M281.849 115.961V123.208" stroke="black" stroke-width="0.5" stroke-linecap="round"/>
<path d="M286.681 119.182V126.429" stroke="black" stroke-width="0.5" stroke-linecap="round"/>
<path d="M265.743 93.4128V100.66" stroke="black" stroke-width="0.5" stroke-linecap="round"/>
<path d="M276.669 95.0233L275.407 96.805" stroke="black" stroke-width="0.5" stroke-linecap="round"/>
<path d="M278.418 95.073L277.155 96.8547" stroke="black" stroke-width="0.5" stroke-linecap="round"/>
<path d="M283.73 90.2376L281.636 90.8557" stroke="black" stroke-width="0.5" stroke-linecap="round"/>
<path d="M285.073 91.359L282.978 91.9771" stroke="black" stroke-width="0.5" stroke-linecap="round"/>
<path d="M309.229 107.908V115.155" stroke="black" stroke-width="0.5" stroke-linecap="round"/>
<path d="M314.061 104.687V111.934" stroke="black" stroke-width="0.5" stroke-linecap="round"/>
<path d="M318.892 101.466V108.713" stroke="black" stroke-width="0.5" stroke-linecap="round"/>
<path d="M326.945 93.4128V100.66" stroke="black" stroke-width="0.5" stroke-linecap="round"/>
<path d="M323.724 98.2445V105.492" stroke="black" stroke-width="0.5" stroke-linecap="round"/>
<path d="M304.397 112.74V119.987" stroke="black" stroke-width="0.5" stroke-linecap="round"/>
<ellipse cx="336.608" cy="84.5547" rx="12.8845" ry="12.0792" fill="#EFC644"/>
<path d="M333.387 86.9705C334.192 85.0915 337.091 81.4946 342.245 82.1388" stroke="black" stroke-width="0.5" stroke-linecap="round"/>
<rect x="41.8748" y="270.467" width="181.994" height="8.05282" fill="#715545"/>
<rect x="41.8748" y="194.771" width="145.867" height="80.0225" transform="rotate(-0.590294 41.8748 194.771)" fill="#715545"/>
</svg>
