<svg width="512" height="512" viewBox="0 0 512 512" fill="none" xmlns="http://www.w3.org/2000/svg">
<g clip-path="url(#clip0_88_65)">
<circle cx="256" cy="255" r="256" fill="url(#paint0_linear_88_65)"/>
<path fill-rule="evenodd" clip-rule="evenodd" d="M241.586 270.373C193.59 307.254 136.762 349.282 75.4844 393.31L94.9926 409.27L91.9497 411.757C93.0024 410.958 94.0533 410.159 95.1025 409.36C130.418 382.481 180.922 341.107 241.586 289.452C273.944 261.899 309.192 231.422 346.567 198.66C372.092 176.286 393.667 157.98 394.512 157.98C399.919 157.98 390.965 207.134 373.714 272.148C362.226 315.449 361.76 327.727 371.365 334.067C376.833 337.676 378.26 337.622 382.22 333.662C393.753 322.129 430.255 165.861 427.937 137.942L427.029 127L396.049 127.884C322.069 129.996 272.791 137.009 229.571 151.575C202.387 160.737 196.803 166.577 206.222 175.996L212.518 182.292L241.586 174.657C278.274 165.021 315.899 158.879 351.792 156.665L379.821 154.936L362.119 171.494C336.535 195.423 294.41 229.781 241.586 270.373ZM-1728.75 976.017C-1669.78 1032.18 -1587.91 1067.42 -1490.77 1078.44C-1460.05 1081.93 -1385.37 1079.75 -1339.19 1074.03C-1297.37 1068.85 -1239.52 1057.52 -1181.35 1043.19C-1177.21 1042.17 -1173.07 1041.13 -1168.93 1040.08C-1100.11 1022.63 -861.712 941.874 -853.468 933.225C-851.452 931.111 -851.966 930.634 -855.091 931.721C-910.342 950.936 -1034.7 989.938 -1098.36 1008.02C-1128.26 1016.51 -1156.87 1024.05 -1184.28 1030.63C-1371.86 1075.71 -1503.45 1076.29 -1611.73 1034.03C-1662.09 1014.38 -1715.98 978.054 -1743.47 945.23C-1751.76 935.32 -1756.63 931.619 -1758.68 933.666C-1762.75 937.742 -1750.03 955.75 -1728.75 976.017Z" fill="#D48C37"/>
<path fill-rule="evenodd" clip-rule="evenodd" d="M241.586 270.373C193.59 307.254 136.762 349.282 75.4844 393.31L94.9926 409.27L91.9497 411.757C93.0024 410.958 94.0533 410.159 95.1025 409.36C130.418 382.481 180.922 341.107 241.586 289.452C273.944 261.899 309.192 231.422 346.567 198.66C372.092 176.286 393.667 157.98 394.512 157.98C399.919 157.98 390.965 207.134 373.714 272.148C362.226 315.449 361.76 327.727 371.365 334.067C376.833 337.676 378.26 337.622 382.22 333.662C393.753 322.129 430.255 165.861 427.937 137.942L427.029 127L396.049 127.884C322.069 129.996 272.791 137.009 229.571 151.575C202.387 160.737 196.803 166.577 206.222 175.996L212.518 182.292L241.586 174.657C278.274 165.021 315.899 158.879 351.792 156.665L379.821 154.936L362.119 171.494C336.535 195.423 294.41 229.781 241.586 270.373ZM-1728.75 976.017C-1669.78 1032.18 -1587.91 1067.42 -1490.77 1078.44C-1460.05 1081.93 -1385.37 1079.75 -1339.19 1074.03C-1297.37 1068.85 -1239.52 1057.52 -1181.35 1043.19C-1177.21 1042.17 -1173.07 1041.13 -1168.93 1040.08C-1100.11 1022.63 -861.712 941.874 -853.468 933.225C-851.452 931.111 -851.966 930.634 -855.091 931.721C-910.342 950.936 -1034.7 989.938 -1098.36 1008.02C-1128.26 1016.51 -1156.87 1024.05 -1184.28 1030.63C-1371.86 1075.71 -1503.45 1076.29 -1611.73 1034.03C-1662.09 1014.38 -1715.98 978.054 -1743.47 945.23C-1751.76 935.32 -1756.63 931.619 -1758.68 933.666C-1762.75 937.742 -1750.03 955.75 -1728.75 976.017Z" fill="url(#paint1_linear_88_65)" fill-opacity="0.7"/>
</g>
<defs>
<linearGradient id="paint0_linear_88_65" x1="256" y1="-1" x2="256" y2="511" gradientUnits="userSpaceOnUse">
<stop stop-color="#7B0323"/>
<stop offset="1" stop-color="#570219"/>
</linearGradient>
<linearGradient id="paint1_linear_88_65" x1="640.072" y1="159.455" x2="-2026.72" y2="1378.84" gradientUnits="userSpaceOnUse">
<stop stop-color="#D48C37"/>
<stop offset="0.0900501" stop-color="#D48C37"/>
<stop offset="0.107984" stop-color="white"/>
<stop offset="0.14358" stop-color="#D48C37"/>
<stop offset="0.171731" stop-color="white"/>
<stop offset="0.197182" stop-color="#D48C37"/>
<stop offset="0.8" stop-color="#D48C37"/>
<stop offset="1" stop-color="#D48C37"/>
</linearGradient>
<clipPath id="clip0_88_65">
<rect width="512" height="512" fill="white"/>
</clipPath>
</defs>
</svg>
